<svg width="21" height="22" viewBox="0 0 21 22" fill="none" xmlns="http://www.w3.org/2000/svg">
<path d="M2.06318 19.555C3.26318 21 5.49519 21 9.96119 21H10.6812C15.1472 21 17.3802 21 18.5802 19.555M2.06318 19.555C0.863179 18.109 1.27518 15.915 2.09818 11.525C2.68318 8.40499 2.97518 6.84399 4.08618 5.92198M18.5802 19.555C19.7802 18.109 19.3682 15.915 18.5452 11.525C17.9602 8.40499 17.6672 6.84399 16.5562 5.92198M16.5562 5.92198C15.4462 4.99998 13.8572 4.99998 10.6822 4.99998H9.96019C6.78519 4.99998 5.19719 4.99998 4.08618 5.92198" stroke="white" stroke-width="1.6"/>
<path d="M7.32178 5V4C7.32178 3.20435 7.63785 2.44129 8.20046 1.87868C8.76307 1.31607 9.52613 1 10.3218 1C11.1174 1 11.8805 1.31607 12.4431 1.87868C13.0057 2.44129 13.3218 3.20435 13.3218 4V5" stroke="white" stroke-width="1.6" stroke-linecap="round"/>
</svg>
